<?xml version="1.0" encoding="UTF-8"?>
<svg width="29px" height="35px" viewBox="0 0 29 35" version="1.1" xmlns="http://www.w3.org/2000/svg" xmlns:xlink="http://www.w3.org/1999/xlink">
    <!-- Generator: Sketch 58 (84663) - https://sketch.com -->
    <title>Combined Shape</title>
    <desc>Created with Sketch.</desc>
    <g id="Site" stroke="none" stroke-width="1" fill="none" fill-rule="evenodd">
        <g id="Desktop-HD-Copy-5" transform="translate(-315.000000, -689.000000)" fill="#FFFDF9" fill-rule="nonzero">
            <g id="Group" transform="translate(245.000000, 625.000000)">
                <path d="M85.9962567,86.5447298 C90.388777,87.3396461 93.5,89.3735983 93.5,92.1974385 C93.5,95.8383911 88.2576724,98.1974385 82,98.1974385 C75.7423276,98.1974385 70.5,95.8383911 70.5,92.1974385 C70.5,89.6427968 73.0432233,87.7404002 76.7924936,86.8043986 C77.5962523,86.603741 78.4104926,87.0926511 78.6111501,87.8964098 C78.8118077,88.7001685 78.3228976,89.5144087 77.5191389,89.7150663 C74.9563866,90.3548549 73.5,91.4442696 73.5,92.1974385 C73.5,93.5270487 77.2119774,95.1974385 82,95.1974385 C86.7880226,95.1974385 90.5,93.5270487 90.5,92.1974385 C90.5,91.3141959 88.5843121,90.061821 85.462023,89.496779 C84.6468371,89.3492545 84.1055907,88.5688235 84.2531152,87.7536376 C84.4006398,86.9384517 85.1810708,86.3972053 85.9962567,86.5447298 Z M91.8249017,66.8022075 L91.8633485,66.9904259 L92.0015724,67.7743329 L96.2510733,69.1801231 C98.0230178,69.7661636 99.0123339,71.6319818 98.5321349,73.4118105 L98.4750305,73.6021152 C98.2838584,74.1801408 97.9456679,74.6970162 97.4953681,75.102886 L97.3213187,75.2497864 L91.2769532,80.0234681 C89.81773,81.1759245 87.7255855,80.9805642 86.5020497,79.6137565 L82.5350134,80.3126691 C82.1928647,80.3729992 81.8535694,80.3814237 81.5252057,80.3435993 L83.2866874,90.3343948 C83.4305422,91.1502363 82.8857895,91.9282239 82.069948,92.0720787 C81.2541066,92.2159336 80.476119,91.6711808 80.3322641,90.8553394 L75.9910597,66.2351455 C75.8472048,65.4193041 76.3919576,64.6413165 77.207799,64.4974617 C78.0236405,64.3536068 78.8016281,64.8983596 78.9454829,65.714201 L78.9708031,65.8568625 C79.2116014,65.7364323 79.46971,65.6423561 79.7420722,65.5789996 L79.9302907,65.5405528 L87.8087527,64.1513674 C89.6489284,63.8268948 91.4065687,65.0038418 91.8249017,66.8022075 Z M87.7526908,69.5921952 C87.51096,69.6348188 87.3406271,69.8444569 87.3394376,70.0815141 L87.347111,70.1714231 L88.6152865,77.3636035 C88.6296549,77.445091 88.6640221,77.5217388 88.7153063,77.5866741 C88.8674397,77.7793032 89.1327748,77.8298871 89.3420607,77.7185457 L89.4175851,77.6691635 L95.4619506,72.8954819 C95.5387369,72.834838 95.5960424,72.7529972 95.6267665,72.6601002 C95.7038422,72.4270554 95.6000168,72.1776928 95.3918587,72.0642567 L95.3090584,72.0283871 L87.9965174,69.6098884 C87.917958,69.5839062 87.8341783,69.5778267 87.7526908,69.5921952 Z M85.3412151,67.6329891 L80.4512352,68.4949761 C80.2095044,68.5375998 80.0391715,68.7472378 80.037982,68.984295 L80.0456554,69.0742041 L81.4348409,76.9526661 C81.4774645,77.1943969 81.6871026,77.3647298 81.9241598,77.3659193 L82.0140688,77.3582459 L85.4599112,76.7506509 L84.3926878,70.6923677 C84.1887962,69.536041 84.5777543,68.4123043 85.3412151,67.6329891 Z" id="Combined-Shape"></path>
            </g>
        </g>
    </g>
</svg>