<?xml version="1.0" encoding="UTF-8"?>
<svg width="35px" height="35px" viewBox="0 0 35 35" version="1.1" xmlns="http://www.w3.org/2000/svg" xmlns:xlink="http://www.w3.org/1999/xlink">
    <!-- Generator: Sketch 58 (84663) - https://sketch.com -->
    <title>community-icon</title>
    <desc>Created with Sketch.</desc>
    <g id="Site" stroke="none" stroke-width="1" fill="none" fill-rule="evenodd">
        <g id="Desktop-HD-Copy-5" transform="translate(-810.000000, -690.000000)" fill="#FFFDF9">
            <path d="M827.5,717.000263 C829.709139,717.000263 831.5,718.791065 831.5,721.000132 C831.5,723.209198 829.709139,725 827.5,725 C825.290861,725 823.5,723.209198 823.5,721.000132 C823.5,718.791065 825.290861,717.000263 827.5,717.000263 Z M817.030476,717.032197 C818.330487,718.388473 819.864832,719.469275 821.550303,720.227936 C821.51682,720.47966 821.5,720.737932 821.5,721.000132 C821.5,721.954179 821.722686,722.856216 822.118917,723.657106 C819.374407,722.771183 816.883669,721.214391 814.864675,719.108016 C814.291434,718.509966 814.311562,717.560463 814.909632,716.987241 C815.507701,716.41402 816.457235,716.434147 817.030476,717.032197 Z M840.100132,716.974938 C840.698758,717.547578 840.719809,718.497061 840.14715,719.095667 C838.125972,721.208425 835.630595,722.7697 832.880342,723.656775 C833.277314,722.856216 833.5,721.954179 833.5,721.000132 C833.5,720.738277 833.483225,720.480341 833.45069,720.227338 C835.139289,719.467465 836.677216,718.383071 837.979333,717.021954 C838.551992,716.423347 839.501506,716.402298 840.100132,716.974938 Z M844.776821,704.208868 C844.923978,705.119661 845,706.052542 845,707.000592 C845,708.503959 844.810061,709.983619 844.438412,711.413672 C844.230045,712.21544 843.411147,712.696492 842.609352,712.488131 C841.807557,712.279771 841.32649,711.4609 841.534857,710.659132 C841.842606,709.474958 842,708.248827 842,707.000592 C842,706.604407 841.983973,706.211414 841.952486,705.822293 C843.041739,705.552941 844.013884,704.984145 844.776821,704.208868 Z M810.223179,704.208868 C810.986116,704.984145 811.958261,705.552941 813.048137,705.823781 C813.016026,706.211424 813,706.604411 813,707.000592 C813,708.242133 813.15571,709.461815 813.460215,710.640115 C813.667487,711.442167 813.185301,712.260381 812.383222,712.467646 C811.581144,712.674911 810.762904,712.192741 810.555632,711.390688 C810.187904,709.967742 810,708.495885 810,707.000592 C810,706.318489 810.039352,705.644244 810.11607,704.980232 L810.180584,704.48418 L810.223179,704.208868 Z M829.029759,703.000724 C829.466801,703.000724 829.883217,703.186603 830.175031,703.511949 L831.604083,705.105207 C832.117451,705.677564 832.129454,706.541045 831.632193,707.12745 L828.673383,710.616691 C828.123856,711.264732 827.153035,711.344594 826.504994,710.795067 C826.440752,710.740592 826.381093,710.680933 826.326617,710.616691 L823.367807,707.12745 C822.870546,706.541045 822.882549,705.677564 823.395917,705.105207 L824.824969,703.511949 C825.116783,703.186603 825.533199,703.000724 825.970241,703.000724 L829.029759,703.000724 Z M840.5,696.000954 C842.709139,696.000954 844.5,697.791756 844.5,700.000823 C844.5,702.209889 842.709139,704.000691 840.5,704.000691 C838.290861,704.000691 836.5,702.209889 836.5,700.000823 C836.5,697.791756 838.290861,696.000954 840.5,696.000954 Z M814.5,696.000954 C816.709139,696.000954 818.5,697.791756 818.5,700.000823 C818.5,702.209889 816.709139,704.000691 814.5,704.000691 C812.290861,704.000691 810.5,702.209889 810.5,700.000823 C810.5,697.791756 812.290861,696.000954 814.5,696.000954 Z M831.878373,690.05372 C834.727465,690.787811 837.270795,692.207384 839.342272,694.113559 C838.23548,694.329142 837.238359,694.84928 836.440467,695.582756 C834.901648,694.374044 833.104246,693.467461 831.129824,692.958736 C830.327599,692.752036 829.844837,691.934163 830.051543,691.131965 C830.258249,690.329767 831.076149,689.84702 831.878373,690.05372 Z M824.972048,691.128224 C825.177552,691.930731 824.693566,692.74788 823.891033,692.953378 C821.908627,693.460997 820.104065,694.369622 818.559036,695.581615 C817.761641,694.84928 816.76452,694.329142 815.658621,694.112791 C817.735751,692.201487 820.287876,690.779315 823.146833,690.047245 C823.949366,689.841747 824.766543,690.325718 824.972048,691.128224 Z" id="community-icon"></path>
        </g>
    </g>
</svg>