<?xml version="1.0" encoding="UTF-8"?>
<svg width="42px" height="32px" viewBox="0 0 42 32" version="1.1" xmlns="http://www.w3.org/2000/svg" xmlns:xlink="http://www.w3.org/1999/xlink">
    <!-- Generator: Sketch 58 (84663) - https://sketch.com -->
    <title>Combined Shape</title>
    <desc>Created with Sketch.</desc>
    <g id="Site" stroke="none" stroke-width="1" fill="none" fill-rule="evenodd">
        <g id="Desktop-HD-Copy-5" transform="translate(-699.000000, -5907.000000)" fill="#FFFDF9" fill-rule="nonzero">
            <path d="M735,5907 C736.204985,5907 737.327006,5907.35521 738.267063,5907.96664 L738.297066,5907.98628 L738.318542,5908.0005 C738.381179,5908.04216 738.442989,5908.08496 738.503942,5908.12889 L738.297066,5907.98628 C738.392321,5908.04905 738.485682,5908.11446 738.577043,5908.1824 C738.722553,5908.29062 738.862955,5908.40524 738.997867,5908.52588 C739.009434,5908.53622 739.020751,5908.54642 739.032029,5908.55666 C739.322054,5908.81997 739.586398,5909.11155 739.82053,5909.4269 C739.829731,5909.4393 739.838531,5909.45125 739.847288,5909.46323 C739.893024,5909.52579 739.937811,5909.58963 739.98137,5909.65435 C739.992393,5909.67073 740.003549,5909.68749 740.014623,5909.7043 C740.063808,5909.779 740.11117,5909.85453 740.156871,5909.93116 C740.159959,5909.93634 740.162977,5909.94142 740.165988,5909.9465 L740.180434,5909.97102 C740.665864,5910.79946 740.958255,5911.75472 740.995862,5912.77506 L741,5913 L741,5933 C741,5936.2384 738.434425,5938.87757 735.224938,5938.99586 L735,5939 L705,5939 C701.761603,5939 699.122428,5936.43443 699.004138,5933.22494 L699,5933 L699,5913 C699,5911.89515 699.298626,5910.86006 699.819566,5909.97102 L699.685184,5910.213 C699.735349,5910.11753 699.788011,5910.02358 699.843083,5909.93124 C699.88883,5909.85453 699.936192,5909.779 699.985163,5909.70463 C699.996484,5909.68744 700.007642,5909.67068 700.018881,5909.65398 C700.062189,5909.58963 700.106976,5909.52579 700.152958,5909.46289 C700.161521,5909.45117 700.170323,5909.43923 700.179167,5909.42731 C700.413602,5909.11155 700.677946,5908.81997 700.96822,5908.55643 C700.979404,5908.54628 700.990723,5908.53608 701.00208,5908.52593 C701.137045,5908.40524 701.277447,5908.29062 701.422917,5908.18243 C701.446318,5908.16503 701.469594,5908.14798 701.492997,5908.13109 C702.422681,5907.46029 703.552127,5907.04921 704.775062,5907.00414 L705,5907 L735,5907 Z M725.202,5925.324 L722.828427,5927.69848 C721.3184,5929.20851 718.901436,5929.25885 717.330946,5927.84949 L717.171573,5927.69848 L714.797,5925.324 L704.22275,5935.89834 C704.416075,5935.95005 704.617096,5935.98293 704.823727,5935.99491 L705,5936 L735,5936 C735.268445,5936 735.528655,5935.96474 735.776251,5935.8986 L725.202,5925.324 Z M702.005093,5912.82373 L702,5913 L702,5933 C702,5933.26881 702.035353,5933.52935 702.101664,5933.77725 L712.675,5923.202 L702.032046,5912.55995 C702.019291,5912.64672 702.010251,5912.7347 702.005093,5912.82373 Z M737.967954,5912.55995 L727.324,5923.203 L737.898336,5933.77725 C737.948069,5933.59133 737.980388,5933.39829 737.99344,5933.19999 L738,5933 L738,5913 C738,5912.85051 737.989066,5912.70357 737.967954,5912.55995 Z M735,5910 L705,5910 C704.618408,5910 704.253455,5910.07124 703.917719,5910.20116 L719.292893,5925.57716 C719.653377,5925.93765 720.220608,5925.96538 720.612899,5925.66035 L720.707107,5925.57716 L736.083282,5910.20155 C735.74727,5910.07139 735.381972,5910 735,5910 Z" id="Combined-Shape"></path>
        </g>
    </g>
</svg>