<?xml version="1.0" encoding="UTF-8"?>
<svg width="30px" height="38px" viewBox="0 0 30 38" version="1.1" xmlns="http://www.w3.org/2000/svg" xmlns:xlink="http://www.w3.org/1999/xlink">
    <!-- Generator: Sketch 58 (84663) - https://sketch.com -->
    <title>directors-icon</title>
    <desc>Created with Sketch.</desc>
    <g id="Site" stroke="none" stroke-width="1" fill="none" fill-rule="evenodd">
        <g id="Desktop-HD-Copy-5" transform="translate(-194.000000, -3852.000000)" fill="#3F6589" fill-rule="nonzero">
            <path d="M210,3852 C211.804998,3852 213.330759,3853.19555 213.828598,3854.83798 L213.881437,3855.02943 L213.897,3855.102 L213.970573,3855.11856 C215.390411,3855.47245 216.510097,3856.58501 216.874184,3858.00078 L218,3858 C221.238397,3858 223.877572,3860.56557 223.995862,3863.77506 L224,3864 L224,3884 C224,3887.2384 221.434425,3889.87757 218.224938,3889.99586 L218,3890 L200,3890 C196.761603,3890 194.122428,3887.43443 194.004138,3884.22494 L194,3884 L194,3864 C194,3860.7616 196.565575,3858.12243 199.775062,3858.00414 L200,3858 L201.125788,3858.00089 C201.471644,3856.65586 202.499472,3855.58448 203.818754,3855.17728 L204.029427,3855.11856 L204.102,3855.102 L204.118563,3855.02943 C204.520711,3853.41597 205.902541,3852.19012 207.595726,3852.02018 L207.80036,3852.0049 L208,3852 L210,3852 Z M201.126214,3861.00076 L200,3861 C198.402319,3861 197.096339,3862.24892 197.005093,3863.82373 L197,3864 L197,3884 C197,3885.59768 198.24892,3886.90366 199.823727,3886.99491 L200,3887 L218,3887 C219.597681,3887 220.903661,3885.75108 220.994907,3884.17627 L221,3884 L221,3864 C221,3862.40232 219.75108,3861.09634 218.176273,3861.00509 L218,3861 L216.873786,3861.00076 C216.445935,3862.66172 214.97802,3863.90498 213.205796,3863.9948 L213,3864 L205,3864 C203.136435,3864 201.570521,3862.7256 201.126214,3861.00076 Z M214.5,3879 C215.328427,3879 216,3879.67157 216,3880.5 C216,3881.32843 215.328427,3882 214.5,3882 L203.5,3882 C202.671573,3882 202,3881.32843 202,3880.5 C202,3879.67157 202.671573,3879 203.5,3879 L214.5,3879 Z M214.5,3873 C215.328427,3873 216,3873.67157 216,3874.5 C216,3875.32843 215.328427,3876 214.5,3876 L203.5,3876 C202.671573,3876 202,3875.32843 202,3874.5 C202,3873.67157 202.671573,3873 203.5,3873 L214.5,3873 Z M214.5,3867 C215.328427,3867 216,3867.67157 216,3868.5 C216,3869.32843 215.328427,3870 214.5,3870 L203.5,3870 C202.671573,3870 202,3869.32843 202,3868.5 C202,3867.67157 202.671573,3867 203.5,3867 L214.5,3867 Z M210,3855 L208,3855 C207.487164,3855 207.064493,3855.38604 207.006728,3855.88338 L207,3856 L207,3858 L205,3858 C204.487164,3858 204.064493,3858.38604 204.006728,3858.88338 L204,3859 L204,3860 C204,3860.51284 204.38604,3860.93551 204.883379,3860.99327 L205,3861 L213,3861 C213.512836,3861 213.935507,3860.61396 213.993272,3860.11662 L214,3860 L214,3859 C214,3858.48716 213.61396,3858.06449 213.116621,3858.00673 L213,3858 L211,3858 L211,3856 C211,3855.44772 210.552285,3855 210,3855 Z" id="directors-icon"></path>
        </g>
    </g>
</svg>