<?xml version="1.0" encoding="UTF-8"?>
<svg width="29px" height="36px" viewBox="0 0 29 36" version="1.1" xmlns="http://www.w3.org/2000/svg" xmlns:xlink="http://www.w3.org/1999/xlink">
    <!-- Generator: Sketch 58 (84663) - https://sketch.com -->
    <title>history-icon</title>
    <desc>Created with Sketch.</desc>
    <g id="Site" stroke="none" stroke-width="1" fill="none" fill-rule="evenodd">
        <g id="Desktop-HD-Copy-5" transform="translate(-194.000000, -4930.000000)" fill="#FFFDF9">
            <path d="M222.304578,4931.71913 C223.06469,4932.81639 223.222619,4934.2174 222.737843,4935.45283 L222.645615,4935.66903 L220.547153,4940.2151 C219.631681,4942.19836 218.23285,4943.91791 216.482156,4945.21703 L216.149809,4945.45565 L212.037196,4948.31165 C211.068979,4948.98402 209.90876,4949.17006 208.846427,4948.92192 L207.069505,4952.0049 C209.264707,4952.10206 211.150084,4953.63373 211.687256,4955.78732 L211.687256,4955.78732 L212.68498,4959.78732 C213.353199,4962.4663 211.728103,4965.18097 209.055226,4965.85071 C208.659526,4965.94986 208.253187,4966 207.845309,4966 L207.845309,4966 L198.988619,4966 C196.233481,4966 194,4963.76142 194,4961 C194,4960.59119 194.050023,4960.18392 194.148948,4959.78732 L194.148948,4959.78732 L195.146672,4955.78732 C195.701864,4953.56149 197.697227,4952 199.986343,4952 L199.986343,4952 L203.615,4952 L206.391775,4947.17993 C205.708463,4946.10499 205.580738,4944.76767 206.044368,4943.58222 L206.138238,4943.36183 L208.2367,4938.81576 C209.152172,4936.8325 210.551003,4935.11295 212.301697,4933.81383 L212.634043,4933.57521 L216.746657,4930.71921 C218.560888,4929.45932 221.049254,4929.907 222.304578,4931.71913 Z M206.847585,4955 L199.986343,4955 C199.070697,4955 198.272551,4955.62459 198.050475,4956.51493 L198.050475,4956.51493 L197.052751,4960.51493 C197.013181,4960.67357 196.993172,4960.83648 196.993172,4961 C196.993172,4962.10457 197.886564,4963 198.988619,4963 L198.988619,4963 L207.845309,4963 C208.00846,4963 208.170996,4962.97995 208.329276,4962.94029 C209.398426,4962.67239 210.048465,4961.58652 209.781177,4960.51493 L209.781177,4960.51493 L208.783453,4956.51493 C208.561376,4955.62459 207.763231,4955 206.847585,4955 L206.847585,4955 Z M218.558822,4933.11493 L218.45138,4933.18007 L214.338767,4936.03607 C212.970142,4936.98651 211.861472,4938.2624 211.1114,4939.74617 L210.956195,4940.06726 L208.857733,4944.61334 C208.709358,4944.93477 208.741786,4945.31036 208.942992,4945.60081 C209.232682,4946.01899 209.785032,4946.14652 210.225031,4945.91594 L210.332473,4945.85079 L214.445086,4942.99479 C215.81371,4942.04435 216.92238,4940.76846 217.672453,4939.28469 L217.827658,4938.9636 L219.92612,4934.41753 C220.074495,4934.09609 220.042067,4933.7205 219.84086,4933.43005 C219.55117,4933.01187 218.99882,4932.88434 218.558822,4933.11493 Z" id="history-icon"></path>
        </g>
    </g>
</svg>