<?xml version="1.0" encoding="UTF-8"?>
<svg width="26px" height="26px" viewBox="0 0 26 26" version="1.1" xmlns="http://www.w3.org/2000/svg" xmlns:xlink="http://www.w3.org/1999/xlink">
    <!-- Generator: Sketch 58 (84663) - https://sketch.com -->
    <title>Combined Shape</title>
    <desc>Created with Sketch.</desc>
    <defs>
        <linearGradient x1="50%" y1="100%" x2="50%" y2="3.061617e-15%" id="linearGradient-1">
            <stop stop-color="#DF3434" offset="0%"></stop>
            <stop stop-color="#FB5E55" offset="100%"></stop>
        </linearGradient>
    </defs>
    <g id="Site" stroke="none" stroke-width="1" fill="none" fill-rule="evenodd">
        <g id="Desktop-HD-Copy-5" transform="translate(-843.000000, -2226.000000)" fill="url(#linearGradient-1)">
            <path d="M868.491218,2227.64511 C868.62523,2227.64257 868.754666,2227.69423 868.850368,2227.78857 C868.946073,2227.8829 869,2228.01197 869,2228.1467 L869,2228.14672 L869,2232.50407 C869,2232.7762 868.783972,2232.99867 868.513328,2233.0054 C858.460118,2233.26076 850.357191,2241.40561 850.103241,2251.51083 C850.09654,2251.78293 849.875171,2252 849.604389,2252 L849.604389,2252 L845.269471,2252 C845.135452,2252 845.007072,2251.94572 844.913239,2251.84954 C844.81941,2251.75336 844.768019,2251.62327 844.77055,2251.48859 C845.037989,2238.44111 855.510888,2227.91401 868.491218,2227.64511 Z M851.253042,2248.02159 L852.195299,2248.16504 C852.314667,2248.18322 852.397642,2248.2955 852.380476,2248.41563 L852.176399,2249.84361 C852.159233,2249.96373 852.04838,2250.04651 851.929009,2250.02833 L850.942115,2249.87809 C850.955779,2249.75925 850.970566,2249.6409 850.986533,2249.52237 C851.054208,2249.01998 851.143385,2248.51823 851.253042,2248.02159 Z M843.453716,2246.83422 L844.53767,2246.99924 C844.424076,2247.5636 844.329962,2248.13173 844.255683,2248.70027 C844.24886,2248.75251 844.242196,2248.80478 844.235696,2248.8571 L843.18743,2248.69751 C843.068058,2248.67933 842.985083,2248.56705 843.002249,2248.44693 L843.206326,2247.01895 C843.223496,2246.89882 843.334345,2246.81604 843.453716,2246.83422 Z M853.227698,2242.90711 L854.084589,2243.3249 C854.193215,2243.37786 854.239304,2243.50983 854.187444,2243.61943 L853.57096,2244.9222 C853.5191,2245.03179 853.388802,2245.07777 853.280177,2245.02481 L852.379337,2244.58559 C852.633252,2244.01121 852.916073,2243.45194 853.227698,2242.90711 Z M846.129721,2239.44637 L847.116333,2239.92741 C847.036565,2240.07319 846.958203,2240.21985 846.881252,2240.36737 C846.668674,2240.7749 846.466775,2241.18949 846.276223,2241.60992 L845.325309,2241.14628 C845.216683,2241.09332 845.170594,2240.96134 845.222457,2240.85175 L845.838937,2239.54898 C845.890801,2239.43938 846.021096,2239.39341 846.129721,2239.44637 Z M856.625161,2238.61395 L857.317804,2239.26638 C857.4059,2239.34936 857.410948,2239.48914 857.329067,2239.57832 L856.355723,2240.6385 C856.273842,2240.72769 856.135842,2240.73273 856.047745,2240.64974 L855.320468,2239.9647 C855.449272,2239.81691 855.580453,2239.67117 855.713971,2239.52751 C856.005109,2239.21427 856.309721,2238.90876 856.625161,2238.61395 Z M861.132645,2235.52173 L861.603603,2236.35518 C861.663231,2236.4607 861.62678,2236.59568 861.522257,2236.65642 L860.279753,2237.37849 C860.17523,2237.43924 860.041958,2237.40288 859.98233,2237.29736 L859.488893,2236.42414 C859.972845,2236.12492 860.471514,2235.84797 860.981995,2235.5954 C861.03209,2235.57061 861.082306,2235.54606 861.132645,2235.52173 Z M866.352557,2233.91905 L866.555835,2234.8536 C866.581621,2234.97216 866.506959,2235.09019 866.389214,2235.11702 L864.9895,2235.43591 C864.871751,2235.46274 864.755218,2235.38827 864.729432,2235.26971 L864.51563,2234.28678 C865.106537,2234.13614 865.70509,2234.01559 866.309063,2233.92548 C866.323557,2233.92332 866.338055,2233.92117 866.352557,2233.91905 Z M850.866429,2233.18961 L851.669795,2233.94633 C851.551932,2234.0607 851.435197,2234.17621 851.319526,2234.29292 C850.99369,2234.62169 850.678879,2234.95722 850.371696,2235.30329 L849.59637,2234.57298 C849.508274,2234.49 849.503226,2234.35022 849.585107,2234.26103 L850.558451,2233.20085 C850.640332,2233.11167 850.778332,2233.10663 850.866429,2233.18961 Z M857.236982,2228.62768 L857.778165,2229.5854 C857.726462,2229.61161 857.674852,2229.638 857.623332,2229.66457 C857.176656,2229.89495 856.741548,2230.13625 856.311878,2230.39171 C856.254053,2230.42609 856.19636,2230.46071 856.138802,2230.49556 L855.615713,2229.56987 C855.556084,2229.46434 855.592533,2229.32936 855.697055,2229.26862 L856.939559,2228.54655 C857.044082,2228.48581 857.177354,2228.52216 857.236982,2228.62768 Z M864.667406,2226.17167 L864.901758,2227.24909 C864.643417,2227.29201 864.38559,2227.33905 864.128346,2227.39024 C863.773466,2227.46085 863.419277,2227.53953 863.066826,2227.62597 L862.841003,2226.58778 C862.815218,2226.46922 862.889876,2226.35119 863.007625,2226.32436 L864.407338,2226.00547 C864.525087,2225.97864 864.64162,2226.05312 864.667406,2226.17167 Z" id="Combined-Shape"></path>
        </g>
    </g>
</svg>