<?xml version="1.0" encoding="UTF-8"?>
<svg width="29px" height="26px" viewBox="0 0 29 26" version="1.1" xmlns="http://www.w3.org/2000/svg" xmlns:xlink="http://www.w3.org/1999/xlink">
    <!-- Generator: Sketch 58 (84663) - https://sketch.com -->
    <title>Combined Shape</title>
    <desc>Created with Sketch.</desc>
    <defs>
        <linearGradient x1="50%" y1="100%" x2="50%" y2="3.061617e-15%" id="linearGradient-1">
            <stop stop-color="#DF3434" offset="0%"></stop>
            <stop stop-color="#FB5E55" offset="100%"></stop>
        </linearGradient>
    </defs>
    <g id="Site" stroke="none" stroke-width="1" fill="none" fill-rule="evenodd">
        <g id="Desktop-HD-Copy-5" transform="translate(-313.000000, -2226.000000)" fill="url(#linearGradient-1)">
            <path d="M332.38898,2226 C333.826695,2226 335.195963,2226.6037 336.152227,2227.65919 L340.723605,2232.70489 C342.390025,2234.54422 342.429061,2237.30777 340.815235,2239.19189 L331.354877,2250.23669 C329.562044,2252.32979 326.382778,2252.59771 324.253788,2250.8351 C324.033912,2250.65306 323.830281,2250.45286 323.645123,2250.23669 L314.184765,2239.19189 C312.570939,2237.30777 312.609975,2234.54422 314.276395,2232.70489 L318.847773,2227.65919 C319.804037,2226.6037 321.173305,2226 322.61102,2226 L332.38898,2226 Z M331.769,2237.891 L323.732,2237.891 L327.750974,2247.22787 L331.769,2237.891 Z M320.45,2237.891 L317.024,2237.891 L323.908,2245.928 L320.45,2237.891 Z M337.975,2237.891 L335.053,2237.891 L332.103,2244.747 L337.975,2237.891 Z M324.362,2228.972 L322.61102,2228.97281 C322.093442,2228.97281 321.598042,2229.16841 321.225291,2229.51531 L321.105721,2229.63649 L316.534343,2234.68219 C316.466491,2234.75709 316.405383,2234.83581 316.351032,2234.9176 L320.61,2234.918 L324.362,2228.972 Z M327.498992,2229.63872 L324.167,2234.918 L330.83,2234.918 L327.498992,2229.63872 Z M332.38898,2228.97281 L330.637,2228.972 L334.388,2234.918 L338.648968,2234.9176 C338.626025,2234.88308 338.601877,2234.8491 338.576527,2234.81572 L338.465657,2234.68219 L333.894279,2229.63649 C333.550024,2229.25651 333.071956,2229.02292 332.560547,2228.98 L332.38898,2228.97281 Z" id="Combined-Shape"></path>
        </g>
    </g>
</svg>