<?xml version="1.0" encoding="UTF-8"?>
<svg width="32px" height="34px" viewBox="0 0 32 34" version="1.1" xmlns="http://www.w3.org/2000/svg" xmlns:xlink="http://www.w3.org/1999/xlink">
    <!-- Generator: Sketch 58 (84663) - https://sketch.com -->
    <title>rubygems-icon</title>
    <desc>Created with Sketch.</desc>
    <g id="Site" stroke="none" stroke-width="1" fill="none" fill-rule="evenodd">
        <g id="Desktop-HD-Copy-5" transform="translate(-311.000000, -1223.000000)" fill="#FFFDF9" fill-rule="nonzero">
            <g id="Group-4" transform="translate(311.000000, 1223.000000)">
                <path d="M19.9220899,1.20617558 L27.9220899,5.70617558 C30.4411058,7.12312199 32,9.78859338 32,12.6787799 L32,21.3212201 C32,24.2114066 30.4411058,26.876878 27.9220899,28.2938244 L19.9220899,32.7938244 C17.4867816,34.1636854 14.5132184,34.1636854 12.0779101,32.7938244 L4.07791008,28.2938244 C1.55889423,26.876878 0,24.2114066 0,21.3212201 L0,12.6787799 C0,9.78859338 1.55889423,7.12312199 4.07791008,5.70617558 L12.0779101,1.20617558 C14.5132184,-0.163685359 17.4867816,-0.163685359 19.9220899,1.20617558 Z M13.7794429,3.69889895 L13.5486938,3.82090219 L5.5486938,8.32090219 C4.04276041,9.16798972 3.08585687,10.7290258 3.00549462,12.4440159 L3,12.6787799 L3,21.3212201 C3,23.049049 3.89142818,24.6483782 5.34677308,25.5592132 L5.5486938,25.6790978 L13.5486938,30.1790978 C14.9946581,30.9924527 16.7442318,31.0331205 18.2205571,30.3011011 L18.4513062,30.1790978 L26.4513062,25.6790978 C27.9572396,24.8320103 28.9141431,23.2709742 28.9945054,21.5559841 L29,21.3212201 L29,12.6787799 C29,10.950951 28.1085718,9.35162177 26.6532269,8.44078684 L26.4513062,8.32090219 L18.4513062,3.82090219 C17.0053419,3.00754726 15.2557682,2.96687951 13.7794429,3.69889895 Z M19.5402133,10 C20.1083789,10 20.6497296,10.2416526 21.0290891,10.6646166 L24.7219154,14.7819056 C25.4366662,15.5788117 25.3972084,16.7972166 24.632394,17.5462073 L17.3993544,24.6295978 C16.6218252,25.3910401 15.3781748,25.3910401 14.6006456,24.6295978 L7.36760603,17.5462073 C6.60279163,16.7972166 6.56333381,15.5788117 7.27808464,14.7819056 L10.9709109,10.6646166 C11.3502704,10.2416526 11.8916211,10 12.4597867,10 L19.5402133,10 Z" id="rubygems-icon"></path>
            </g>
        </g>
    </g>
</svg>