<?xml version="1.0" encoding="UTF-8"?>
<svg width="32px" height="30px" viewBox="0 0 32 30" version="1.1" xmlns="http://www.w3.org/2000/svg" xmlns:xlink="http://www.w3.org/1999/xlink">
    <!-- Generator: Sketch 58 (84663) - https://sketch.com -->
    <title>staff-icon</title>
    <desc>Created with Sketch.</desc>
    <g id="Site" stroke="none" stroke-width="1" fill="none" fill-rule="evenodd">
        <g id="Desktop-HD-Copy-5" transform="translate(-193.000000, -4391.000000)" fill="#3F6589" fill-rule="nonzero">
            <path d="M209,4391 C213.778346,4391 217,4395.46188 217,4400.33333 C217,4401.91376 216.556707,4403.51212 215.801564,4404.92879 L215.819205,4404.89556 L215.819205,4404.89556 L220.786231,4407.19466 C223.272647,4408.34578 224.892943,4410.79305 224.994891,4413.51577 L225,4413.78892 L225,4416 C225,4418.68875 222.877693,4420.88182 220.21689,4420.99538 L220,4421 L198,4421 C195.311245,4421 193.118182,4418.87769 193.00462,4416.21689 L193,4416 L193,4413.78892 C193,4411.04897 194.540088,4408.55045 196.968038,4407.31406 L197.213769,4407.19466 L202.180795,4404.89556 L202.198436,4404.92879 C201.443293,4403.51212 201,4401.91376 201,4400.33333 C201,4395.46188 204.221654,4391 209,4391 Z M203.922215,4407.39481 L198.474139,4409.91707 C197.031152,4410.58511 196.084988,4411.99666 196.005441,4413.573 L196,4413.78892 L196,4416 C196,4417.05436 196.815878,4417.91817 197.850738,4417.99451 L198,4418 L220,4418 C221.054362,4418 221.918165,4417.18412 221.994514,4416.14926 L222,4416 L222,4413.78892 C222,4412.1988 221.116575,4410.74716 219.719517,4410.01272 L219.525861,4409.91707 L214.077785,4407.39481 L214.044038,4407.37936 L214.044038,4407.37936 L214.011859,4407.36425 C212.618478,4408.76365 210.85862,4409.66667 209,4409.66667 C207.218822,4409.66667 205.528349,4408.83734 204.164203,4407.53656 L203.99012,4407.36624 L203.99012,4407.36624 L203.922215,4407.39481 Z M203.701709,4407.06399 L203.728407,4407.09307 C203.719385,4407.08328 203.710381,4407.07347 203.701394,4407.06364 L203.701709,4407.06399 Z M209,4394 C206.234784,4394 204,4396.74731 204,4400.33333 C204,4403.50448 206.637602,4406.66667 209,4406.66667 C211.362398,4406.66667 214,4403.50448 214,4400.33333 C214,4396.74731 211.765216,4394 209,4394 Z M203.20027,4406.47091 L203.233377,4406.51302 C203.222246,4406.49893 203.211148,4406.48482 203.200084,4406.47067 L203.20027,4406.47091 Z M214.765888,4406.51395 C214.766426,4406.51286 214.766158,4406.5132 214.765889,4406.51354 L214.765888,4406.51395 Z M203.054656,4406.28018 L203.016001,4406.22798 C202.984557,4406.18524 202.953414,4406.14222 202.922577,4406.09894 C202.966208,4406.16017 203.010137,4406.22045 203.054656,4406.28018 Z M214.945255,4406.2803 L214.999148,4406.20713 C215.025359,4406.17134 215.051359,4406.13535 215.077146,4406.09918 C215.03397,4406.15993 214.989909,4406.22039 214.945255,4406.2803 Z M202.753697,4405.85469 L202.778972,4405.8922 C202.770508,4405.8797 202.76207,4405.86717 202.753657,4405.85463 L202.753697,4405.85469 Z M215.246357,4405.85454 L215.174961,4405.95967 L215.174961,4405.95967 C215.198818,4405.92493 215.222688,4405.88981 215.246357,4405.85454 Z M202.581371,4405.58934 L202.535904,4405.51634 L202.535904,4405.51634 C202.550702,4405.54032 202.565989,4405.56487 202.581371,4405.58934 Z M215.418188,4405.59004 L215.431963,4405.56804 C215.427528,4405.57514 215.423085,4405.58222 215.418634,4405.58931 L215.418188,4405.59004 Z" id="staff-icon"></path>
        </g>
    </g>
</svg>