<?xml version="1.0" encoding="UTF-8"?>
<svg width="30px" height="39px" viewBox="0 0 30 39" version="1.1" xmlns="http://www.w3.org/2000/svg" xmlns:xlink="http://www.w3.org/1999/xlink">
    <!-- Generator: Sketch 58 (84663) - https://sketch.com -->
    <title>support-icon</title>
    <desc>Created with Sketch.</desc>
    <g id="Site" stroke="none" stroke-width="1" fill="none" fill-rule="evenodd">
        <g id="Desktop-HD-Copy-5" transform="translate(-387.000000, -1750.000000)" fill="#FFFDF9" fill-rule="nonzero">
            <path d="M407.77793,1750 C410.180067,1750 412.451184,1751.00267 414.128971,1752.78251 C415.795627,1754.55017 416.717122,1756.91341 416.716522,1759.45344 L416.716522,1759.45344 L416.708712,1759.80507 C416.612907,1762.13853 415.701234,1764.33936 414.129525,1766.00632 L414.129525,1766.00632 L410.456,1769.903 L412.341963,1783.74676 C412.725171,1785.85441 411.381215,1787.87632 409.31757,1788.35726 L409.122025,1788.39779 C408.077015,1788.58779 407.002643,1788.35395 406.133695,1787.75389 L405.950721,1787.61971 L401.858561,1785.65915 L397.766401,1787.61971 C396.022612,1788.97599 393.509509,1788.66186 392.153229,1786.91807 C391.501137,1786.07966 391.211162,1785.01907 391.34091,1783.97106 L391.375158,1783.74676 L393.259,1769.901 L389.58738,1766.00609 C387.99735,1764.31864 387.085322,1762.08826 387.005696,1759.73197 L387,1759.39455 C387,1756.91457 387.921565,1754.55125 389.58808,1752.78226 C391.26598,1751.0023 393.536834,1750 395.939497,1750 C397.355272,1750 398.735094,1750.3469 399.985974,1751.01533 C400.139875,1751.09755 400.294089,1751.19125 400.450374,1751.2956 C400.734615,1751.48538 401.03084,1751.71398 401.337254,1751.97645 C401.481318,1752.09986 401.626623,1752.22985 401.775022,1752.36827 L401.775022,1752.36827 L401.906561,1752.49256 L402.136704,1752.25679 L402.407301,1751.99724 C402.762073,1751.66877 403.113781,1751.38992 403.535987,1751.1271 L403.535987,1751.1271 L403.73104,1751.01555 C404.981395,1750.34684 406.361341,1750 407.77793,1750 Z M395.843,1772.642 L394.326768,1784.28342 C394.283145,1784.52335 394.328888,1784.76946 394.452843,1784.97631 L394.521286,1785.07625 C394.834274,1785.47866 395.393685,1785.57653 395.820781,1785.32252 L395.924579,1785.25166 L400.016739,1783.29109 C401.045904,1782.49063 402.466437,1782.4506 403.534739,1783.17102 L403.700383,1783.29109 L407.792543,1785.25166 C408.017116,1785.42633 408.305456,1785.49707 408.585369,1785.44618 C409.089933,1785.35444 409.436729,1784.89901 409.404596,1784.39936 L409.390353,1784.28342 L407.872,1772.644 L404.666559,1776.04698 C403.25537,1777.54432 400.930187,1777.66338 399.375653,1776.35427 L399.212122,1776.20854 C399.170935,1776.16895 399.150341,1776.14915 399.130146,1776.12896 L399.130146,1776.12896 L395.843,1772.642 Z M407.77793,1752.85856 C406.831099,1752.85856 405.914268,1753.08963 405.079157,1753.53626 L405.079157,1753.53626 L404.976852,1753.59597 C404.802653,1753.70509 404.587437,1753.87437 404.349352,1754.09481 C404.14712,1754.28205 403.941632,1754.49338 403.742442,1754.71774 C403.643865,1754.82878 403.562034,1754.92552 403.521245,1754.97705 L403.521245,1754.97705 L402.04914,1756.83656 L400.405136,1755.03296 L400.182289,1754.80386 C399.947094,1754.56783 399.708689,1754.34536 399.477614,1754.14742 C399.251253,1753.95352 399.043627,1753.79351 398.863055,1753.67295 C398.834982,1753.6542 398.807889,1753.63664 398.781857,1753.62027 L398.781857,1753.62027 L398.639017,1753.53666 C397.802603,1753.0897 396.885536,1752.85856 395.939497,1752.85856 C394.332008,1752.85856 392.811008,1753.53067 391.668142,1754.74305 C390.509757,1755.97267 389.858561,1757.63174 389.858561,1759.39455 C389.858561,1761.15745 390.50983,1762.81676 391.66785,1764.04573 L391.66785,1764.04573 L401.151454,1774.10765 L401.269328,1774.20864 C401.670478,1774.50191 402.23664,1774.4574 402.586293,1774.0864 L402.586293,1774.0864 L407.396,1768.982 L409.960612,1766.26156 L409.96,1766.262 L412.049259,1764.04574 C413.074794,1762.95806 413.702702,1761.53311 413.833134,1759.99654 L413.852557,1759.68781 L413.858561,1759.39487 C413.858561,1757.63077 413.207584,1755.9722 412.049112,1754.74352 C410.906038,1753.53091 409.384717,1752.85856 407.77793,1752.85856 Z" id="support-icon"></path>
        </g>
    </g>
</svg>